<?xml version="1.0" encoding="utf-8"?>
<!-- Generator: Adobe Illustrator 22.1.0, SVG Export Plug-In . SVG Version: 6.00 Build 0)  -->
<svg version="1.1" id="Layer_1" xmlns="http://www.w3.org/2000/svg" xmlns:xlink="http://www.w3.org/1999/xlink" x="0px" y="0px"
	 viewBox="0 0 100 100" style="enable-background:new 0 0 100 100;" xml:space="preserve">
<path d="M49.6,10.4c-21.4,0-38.8,17.4-38.8,38.8c0,7.4,3.1,16,6.1,20.8c2.9,4.4,5.7,7.5,10.5,11c5.8,4,14.2,7,22.2,7
	c21.4,0,38.8-17.4,38.8-38.8C88.3,27.7,70.9,10.4,49.6,10.4z M49.6,82.1c-7,0-13.7-2.2-19.3-6.2c-3.1-2.1-5.8-5-8.3-8.7
	c-3.5-5.4-5.4-11.7-5.4-18.1c0-8.8,3.4-17.1,9.7-23.3c6.2-6.2,14.5-9.7,23.3-9.7c18.2,0,33,14.8,33,33S67.8,82.1,49.6,82.1z"/>
<path d="M31.4,38.3h15.4v3.8H35.9v5h9.6v3.8h-9.6v9.1h-4.5V38.3z"/>
<path d="M63.6,38.9c0.8,0.3,1.5,0.8,2,1.5c0.5,0.5,0.8,1.2,1.1,1.8c0.3,0.7,0.4,1.4,0.4,2.3c0,1-0.3,2-0.8,3s-1.4,1.7-2.6,2.1
	c1,0.4,1.7,1,2.1,1.7c0.4,0.7,0.6,1.9,0.6,3.4v1.5c0,1,0,1.7,0.1,2c0.1,0.6,0.4,1,0.8,1.2v0.5h-5c-0.1-0.5-0.2-0.9-0.3-1.2
	C62,58.1,62,57.5,62,56.9l0-2c0-1.4-0.3-2.3-0.7-2.8s-1.3-0.7-2.6-0.7h-4.4v8.5h-4.4V38.3h10.3C61.6,38.3,62.8,38.5,63.6,38.9z
	 M54.2,42.1v5.8h4.9c1,0,1.7-0.1,2.2-0.4c0.9-0.4,1.3-1.2,1.3-2.4c0-1.3-0.4-2.2-1.2-2.6c-0.5-0.3-1.2-0.4-2.1-0.4L54.2,42.1
	L54.2,42.1z"/>
</svg>
