<svg xmlns="http://www.w3.org/2000/svg" xmlns:xlink="http://www.w3.org/1999/xlink" version="1.1" x="0px" y="0px" viewBox="0 0 100 100" enable-background="new 0 0 100 100" xml:space="preserve"><path d="M61.312,42.443c-0.465-0.254-1.16-0.381-2.088-0.381h-4.98v5.801h4.855c0.965,0,1.688-0.117,2.17-0.352  c0.854-0.41,1.281-1.221,1.281-2.432C62.55,43.771,62.136,42.892,61.312,42.443z"></path><path d="M49.562,10.357c-21.367,0-38.75,17.384-38.75,38.751c0,7.399,2.093,14.577,6.058,20.794l-6.277,16.49  c-0.156,0.409-0.05,0.87,0.268,1.17c0.205,0.194,0.472,0.296,0.742,0.296c0.149,0,0.3-0.03,0.442-0.094l15.361-6.875  c6.524,4.562,14.172,6.969,22.157,6.969c21.368,0,38.751-17.384,38.751-38.75C88.312,27.741,70.93,10.357,49.562,10.357z   M46.802,42.135H35.889v4.966h9.565v3.75h-9.565v9.053h-4.482V38.341h15.396V42.135z M67.427,59.904h-4.98  c-0.137-0.479-0.234-0.864-0.293-1.157c-0.117-0.605-0.18-1.226-0.189-1.86l-0.029-2.007c-0.02-1.377-0.258-2.295-0.715-2.754  s-1.314-0.688-2.57-0.688h-4.406v8.467h-4.409V38.312h10.327c1.477,0.029,2.613,0.215,3.408,0.557s1.469,0.845,2.021,1.509  c0.457,0.547,0.818,1.152,1.084,1.816c0.268,0.664,0.4,1.421,0.4,2.271c0,1.025-0.258,2.034-0.775,3.025s-1.373,1.691-2.564,2.102  c0.996,0.4,1.701,0.969,2.117,1.707c0.414,0.737,0.623,1.863,0.623,3.377v1.45c0,0.986,0.039,1.655,0.119,2.007  c0.119,0.557,0.396,0.967,0.832,1.23V59.904z"></path></svg>
