<?xml version="1.0" encoding="utf-8"?>
<!-- Generator: Adobe Illustrator 22.1.0, SVG Export Plug-In . SVG Version: 6.00 Build 0)  -->
<svg version="1.1" id="Layer_1" xmlns="http://www.w3.org/2000/svg" xmlns:xlink="http://www.w3.org/1999/xlink" x="0px" y="0px"
	 viewBox="0 0 600 600" style="enable-background:new 0 0 600 600;" xml:space="preserve">
<style type="text/css">
	.st0{fill:#84006B;}
	.st1{fill:#FF0000;}
	.st2{fill:#0094C6;}
	.st3{fill:#FFD600;}
	.st4{fill:#109C52;}
</style>
<path class="st0" d="M573.2,191.4c-3.2-9.5-6.8-19-11-28.3l-16,7.2c8.6,16.2,15.8,33.3,21.7,51.4l-57.5,18.9
	c18.5,87.6-14.8,178.2-89.7,233l43.1,59.9C572.5,453.8,614.9,317.2,573.2,191.4z"/>
<path class="st1" d="M494,529.1c8-6,15.8-12.4,23.3-19.3l-11.7-13.1c-12.6,13.2-26.5,25.5-41.7,36.7L428.4,484
	c-76.8,44.8-172.5,40.8-247.3-14L138,529.9C246.6,609.5,388.4,608.1,494,529.1z"/>
<path class="st2" d="M151.3,557.5c8.1,5.8,16.6,11.3,25.4,16.4l8.7-15.3c-16.3-8-32.2-17.5-47.4-28.7l35.5-49.4
	c-65.9-59.9-91.8-153-63.2-241.7L40.5,216C-0.9,344.8,44.2,480.5,151.3,557.5z"/>
<path class="st3" d="M18.6,237.3c-3,9.6-5.5,19.4-7.6,29.4l17.1,3.7c2.5-18.1,6.6-36.3,12.4-54.4L98,234.8
	C134.1,153,213.8,99.5,306.2,99.5V25.4C172,25.4,58.1,110.8,18.6,237.3z"/>
<path class="st4" d="M279.4,11c-9.9,0.1-20,0.7-30.1,1.8l1.8,17.6c17.9-3.2,36.3-4.9,55.1-4.9v61c88.3,9.4,163.3,69.3,191.9,158.1
	l69.8-22.9C526.4,92.8,410.8,9.8,279.4,11z"/>
</svg>
